<svg width="22" height="22" viewBox="0 0 22 22" fill="none" xmlns="http://www.w3.org/2000/svg">
<path fill-rule="evenodd" clip-rule="evenodd" d="M20.0482 9.39752L18.1887 14.976C16.8777 18.9091 16.2221 20.8757 15.2609 21.4346C14.3464 21.9662 13.2169 21.9662 12.3024 21.4346C11.3411 20.8757 10.6856 18.9091 9.37455 14.976C9.16404 14.3445 9.05878 14.0287 8.88209 13.7647C8.71086 13.509 8.49113 13.2892 8.23534 13.118C7.97141 12.9413 7.65564 12.836 7.0241 12.6255C3.09092 11.3145 1.12433 10.6589 0.565478 9.69764C0.033838 8.78315 0.0338382 7.65371 0.565478 6.73922C1.12433 5.77793 3.09092 5.1224 7.0241 3.81134L12.6026 1.95186C17.4758 0.32744 19.9124 -0.484768 21.1986 0.801439C22.4848 2.08765 21.6726 4.52427 20.0482 9.39752ZM12.1329 9.81068C11.8174 9.49163 11.8202 8.97719 12.1393 8.66165L16.7007 4.15053C17.0197 3.83499 17.5342 3.83784 17.8497 4.15689C18.1652 4.47595 18.1624 4.99039 17.8433 5.30593L13.2819 9.81705C12.9629 10.1326 12.4484 10.1297 12.1329 9.81068Z" fill="white"/>
</svg>
